<?xml version="1.0" encoding="UTF-8"?><svg xmlns="http://www.w3.org/2000/svg" class="header" enable-background="new 0 0 164 31" height="31px" preserveAspectRatio="xMidYMid meet" version="1.1" viewBox="0 0 164 31" width="164px" xml:space="preserve"><style type="text/css">
	.header .text, .header .img , .invert .img, .invert .text  {fill:	#FFF;}
    .text{fill:	#04253B;}
    .img{fill:	#42ABE0;}
	</style><g class="text" id="text" transform="matrix(0.906077,0,0,0.906077,-9.15921e-05,-0.598916)"><path d="M103.996,33.11L117.861,1.727C118.073,1.243 117.817,0.84 117.28,0.84L107.573,0.84C107.043,0.84 106.437,1.243 106.223,1.733L92.534,33.108C92.331,33.59 92.588,33.993 93.115,33.993L102.642,33.993C103.172,33.993 103.788,33.594 103.996,33.11Z"/><path d="M153.708,24.659L175.217,0.852L150.059,0.852L144.368,10.024L154.235,10.024L132.37,34L158.999,34L168.915,24.659L153.708,24.659Z"/><path d="M56.755,10.329L54.703,14.852C54.231,15.942 53.539,16.02 52.858,15.995L48.217,15.995L51.322,8.958L55.773,8.958C56.854,9.012 57.135,9.411 56.755,10.329ZM61.616,0.852L44.963,0.852C44.042,0.852 42.974,1.547 42.603,2.399L29.496,32.452C29.121,33.301 29.577,34 30.507,34L38.764,34C39.699,34 40.759,33.301 41.13,32.456L44.865,23.942L48.744,23.942C49.95,23.868 50.472,24.303 49.804,25.711L46.924,32.446C46.56,33.301 47.022,34 47.95,34L56.212,34C57.135,34 58.198,33.301 58.569,32.446L62.322,23.774C63.502,20.958 61.793,18.778 59.321,18.657C61.519,17.874 63.531,15.686 64.435,13.719L66.376,9.143C68.721,3.833 67.053,0.782 61.616,0.852Z"/><path d="M88.564,10.489L87.73,12.395L87.607,12.643C87.218,13.59 86.485,13.946 85.671,13.92L80.873,13.92L83.071,8.879L87.946,8.879C88.831,8.934 88.97,9.504 88.564,10.489ZM85.393,21.596L84.191,24.002C83.586,25.678 82.544,26.131 81.07,26.157L75.545,26.157L78.189,19.918L83.714,19.918C85.276,20.032 85.889,20.415 85.393,21.596ZM94.043,0.84L76.388,0.84C75.727,0.84 74.966,1.342 74.704,1.946L61.208,32.883C60.947,33.495 61.269,33.985 61.934,33.985L80.827,33.985C86.819,33.901 90.252,32.569 92.99,26.227L94.93,22.002C96.463,18.381 94.961,16.817 92.106,16.356C94.487,15.624 96.271,13.385 97.042,11.418L98.626,8.067C100.565,3.585 98.943,0.776 94.043,0.84Z"/><path d="M120.917,0.852L116.807,10.024L122.665,10.024C123.065,10.024 123.252,10.313 123.09,10.68L112.862,33.34C112.691,33.704 112.889,34 113.284,34L123.715,34C124.116,34 124.565,33.704 124.733,33.334L134.559,10.686C134.721,10.325 135.168,10.024 135.569,10.024L141.577,10.024L147.225,0.852L120.917,0.852Z"/><path d="M34.417,12.135L35.71,9.311C38.321,3.35 36.593,0.786 31.475,0.852L19.14,0.852C14.078,0.786 9.837,3.647 7.498,8.961L3.678,19.717L0.094,19.717L6.977,29.01L18.354,19.717L15.46,19.717L18.802,11.959C19.339,10.686 20.275,10.073 21.274,10.024L23.216,10.024C23.677,10.047 23.992,10.19 24.171,10.387L30.208,5.317L34.417,12.135Z"/><path class="img" d="M6.714,31.739L1.652,25.331L1.388,25.891C-0.966,31.249 -0.575,33.915 4.503,34L16.668,34C21.702,33.915 26.109,31.249 28.483,25.891L32.084,17.6L35.33,17.6L29.803,8.305L18.52,17.6L21.62,17.6L19.334,22.891C18.783,24.014 17.946,24.625 17.044,24.659L15.433,24.659L6.714,31.739Z" id="img"/><path d="M179.006,2.167L179.188,2.167C179.407,2.167 179.516,2.083 179.516,1.914C179.516,1.752 179.413,1.672 179.204,1.672L179.006,1.672L179.006,2.167ZM180.053,3.134L179.668,3.134L179.214,2.445L179.006,2.445L179.006,3.134L178.667,3.134L178.667,1.389L179.214,1.389C179.398,1.389 179.549,1.436 179.667,1.529C179.786,1.622 179.844,1.747 179.844,1.903C179.844,2.12 179.733,2.273 179.51,2.362L180.053,3.134ZM179.231,3.594C179.597,3.594 179.911,3.463 180.17,3.205C180.43,2.946 180.561,2.633 180.561,2.268C180.561,1.905 180.43,1.594 180.17,1.335C179.911,1.075 179.597,0.946 179.231,0.946C178.868,0.946 178.555,1.075 178.297,1.335C178.038,1.594 177.909,1.905 177.909,2.268C177.909,2.635 178.038,2.948 178.295,3.207C178.553,3.465 178.866,3.594 179.231,3.594ZM179.231,0.661C179.676,0.661 180.056,0.818 180.373,1.133C180.688,1.449 180.846,1.827 180.846,2.268C180.846,2.715 180.688,3.098 180.373,3.415C180.056,3.732 179.676,3.89 179.231,3.89C178.786,3.89 178.405,3.732 178.09,3.415C177.774,3.098 177.617,2.715 177.617,2.268C177.617,1.823 177.774,1.444 178.088,1.131C178.403,0.817 178.784,0.661 179.231,0.661Z"/></g></svg>